<svg aria-hidden="true" style="position: absolute; width: 0; height: 0; overflow: hidden;" version="1.1" xmlns="http://www.w3.org/2000/svg" xmlns:xlink="http://www.w3.org/1999/xlink">
<defs>
<symbol id="icon-location" viewBox="0 0 32 32">
<path d="M16 0c-5.523 0-10 4.477-10 10 0 10 10 22 10 22s10-12 10-22c0-5.523-4.477-10-10-10zM16 16c-3.314 0-6-2.686-6-6s2.686-6 6-6 6 2.686 6 6-2.686 6-6 6z"></path>
</symbol>
<symbol id="icon-search" viewBox="0 0 32 32">
<path d="M31.008 27.231l-7.58-6.447c-0.784-0.705-1.622-1.029-2.299-0.998 1.789-2.096 2.87-4.815 2.87-7.787 0-6.627-5.373-12-12-12s-12 5.373-12 12 5.373 12 12 12c2.972 0 5.691-1.081 7.787-2.87-0.031 0.677 0.293 1.515 0.998 2.299l6.447 7.58c1.104 1.226 2.907 1.33 4.007 0.23s0.997-2.903-0.23-4.007zM12 20c-4.418 0-8-3.582-8-8s3.582-8 8-8 8 3.582 8 8-3.582 8-8 8z"></path>
</symbol>
<symbol id="celsius" viewBox="0 0 32 32">
<path d="M6.636 6.229c-0.056-0.002-0.122-0.004-0.189-0.004-2.746 0-4.972 2.226-4.972 4.972 0 0.057 0.001 0.114 0.003 0.171l-0-0.008c-0.001 0.040-0.002 0.087-0.002 0.134 0 2.79 2.262 5.052 5.052 5.052 0.038 0 0.076-0 0.114-0.001l-0.006 0c0.040 0.001 0.088 0.002 0.135 0.002 2.776 0 5.026-2.25 5.026-5.026 0-0.057-0.001-0.113-0.003-0.17l0 0.008c0.002-0.057 0.004-0.124 0.004-0.191 0-2.732-2.214-4.946-4.946-4.946-0.076 0-0.152 0.002-0.227 0.005l0.011-0zM8.311 13.063c-0.425 0.452-0.984 0.665-1.675 0.665s-1.223-0.213-1.649-0.665c-0.425-0.425-0.638-0.984-0.638-1.702s0.186-1.25 0.612-1.675c0.452-0.425 0.984-0.638 1.675-0.638s1.25 0.213 1.675 0.638 0.638 0.984 0.638 1.675c0 0.718-0.213 1.276-0.638 1.702zM22.43 21.784c-1.33 0-2.313-0.532-3.058-1.516s-1.064-2.393-1.064-4.254 0.346-3.138 1.064-4.121c0.745-0.984 1.755-1.489 3.058-1.489 0.931 0 1.702 0.266 2.287 0.798 0.608 0.551 1.017 1.31 1.115 2.164l0.001 0.016h4.627c-0.266-2.127-1.090-3.829-2.526-5.052-1.462-1.223-3.324-1.861-5.637-1.861-0.084-0.003-0.184-0.005-0.283-0.005-2.372 0-4.511 1.002-6.014 2.606l-0.004 0.004c-1.649 1.728-2.473 4.068-2.473 6.993s0.798 5.238 2.446 6.993c1.506 1.594 3.635 2.586 5.995 2.586 0.117 0 0.234-0.002 0.35-0.007l-0.017 0.001c2.313 0 4.254-0.612 5.744-1.861 1.453-1.286 2.383-3.134 2.446-5.201l0-0.011h-4.653c-0.266 2.127-1.409 3.191-3.404 3.191z"></path>
</symbol>
<symbol id="fahrenheit" viewBox="0 0 32 32">
<path d="M7.325 5.751c-0.061-0.002-0.132-0.004-0.203-0.004-2.959 0-5.359 2.415-5.359 5.394 0 0.062 0.001 0.124 0.003 0.186l-0-0.009c-0.001 0.043-0.002 0.094-0.002 0.145 0 3.027 2.438 5.481 5.445 5.481 0.041 0 0.082-0.001 0.123-0.001l-0.006 0c0.044 0.001 0.095 0.002 0.146 0.002 2.991 0 5.416-2.441 5.416-5.452 0-0.062-0.001-0.123-0.003-0.184l0 0.009c0.002-0.062 0.004-0.134 0.004-0.207 0-2.963-2.386-5.366-5.33-5.366-0.082 0-0.164 0.002-0.245 0.006l0.012-0zM9.13 13.164c-0.458 0.49-1.060 0.721-1.805 0.721s-1.318-0.231-1.777-0.721c-0.458-0.462-0.688-1.067-0.688-1.846s0.201-1.356 0.659-1.817c0.487-0.462 1.060-0.692 1.805-0.692s1.347 0.231 1.805 0.692 0.688 1.067 0.688 1.817c0 0.779-0.229 1.385-0.688 1.846zM30.278 10.914v-4.414h-14.93v19.702h5.158v-7.558h8.282v-4.212h-8.282v-3.519h9.772z"></path>
</symbol>
<symbol id="icon-circle-right" viewBox="0 0 32 32">
<path d="M16 0c-8.837 0-16 7.163-16 16s7.163 16 16 16 16-7.163 16-16-7.163-16-16-16zM16 29c-7.18 0-13-5.82-13-13s5.82-13 13-13 13 5.82 13 13-5.82 13-13 13z"></path>
<path d="M11.086 22.086l2.829 2.829 8.914-8.914-8.914-8.914-2.828 2.828 6.086 6.086z"></path>
</symbol>
<symbol id="icon-circle-left" viewBox="0 0 32 32">
<path d="M16 32c8.837 0 16-7.163 16-16s-7.163-16-16-16-16 7.163-16 16 7.163 16 16 16zM16 3c7.18 0 13 5.82 13 13s-5.82 13-13 13-13-5.82-13-13 5.82-13 13-13z"></path>
<path d="M20.914 9.914l-2.829-2.829-8.914 8.914 8.914 8.914 2.828-2.828-6.086-6.086z"></path>
</symbol>
<symbol id="snowflake" viewBox="0 0 32 32">
<path stroke-linejoin="round" stroke-linecap="round" stroke-miterlimit="4" stroke-width="0.9375" d="M28.486 20.219l-3.692-2.12c0.334-1.399 0.323-2.831 0-4.198l3.692-2.12c0.778-0.455 1.293-1.287 1.293-2.239 0-1.428-1.157-2.585-2.585-2.585-0.476 0-0.921 0.128-1.304 0.352l0.012-0.007-3.692 2.131c-0.995-0.943-2.212-1.662-3.564-2.072l-0.064-0.017v-4.263c0-1.427-1.157-2.583-2.583-2.583s-2.583 1.157-2.583 2.583v0 4.263c-1.415 0.428-2.631 1.147-3.632 2.092l0.004-0.004-3.692-2.131c-0.371-0.217-0.816-0.346-1.292-0.346-1.428 0-2.585 1.157-2.585 2.585 0 0.952 0.515 1.784 1.281 2.232l0.012 0.007 3.692 2.12c-0.323 1.399-0.323 2.831 0 4.198l-3.692 2.11c-0.778 0.455-1.293 1.287-1.293 2.239 0 1.428 1.157 2.585 2.585 2.585 0.476 0 0.921-0.128 1.304-0.352l-0.012 0.007 3.692-2.131c0.995 0.943 2.212 1.662 3.564 2.072l0.064 0.017v4.273c0 1.427 1.157 2.583 2.583 2.583s2.583-1.157 2.583-2.583v0-4.273c1.414-0.425 2.63-1.141 3.632-2.082l-0.005 0.004 3.692 2.131c0.372 0.223 0.821 0.354 1.3 0.354 0.952 0 1.782-0.519 2.224-1.289l0.007-0.012c0.218-0.371 0.346-0.816 0.346-1.292 0-0.952-0.515-1.784-1.281-2.232l-0.012-0.007zM14.063 19.358c-1.168-0.683-1.94-1.93-1.94-3.358 0-2.141 1.736-3.877 3.877-3.877 0.713 0 1.382 0.193 1.956 0.529l-0.018-0.010c1.168 0.683 1.94 1.93 1.94 3.358 0 2.141-1.736 3.877-3.877 3.877-0.713 0-1.382-0.193-1.956-0.529l0.018 0.010z"></path>
</symbol>
<symbol id="raindrop" viewBox="0 0 32 32">
<path d="M16 1.252c-5.986 8.85-9.833 14.381-9.833 19.753s4.4 9.747 9.833 9.747 9.833-4.364 9.833-9.747-3.847-10.915-9.833-19.753z"></path>
</symbol>
<symbol id="mist" viewBox="0 0 32 32">
<path stroke-linejoin="miter" stroke-linecap="round" stroke-miterlimit="10" stroke-width="1.125" d="M0 8.533h32M0 16h32M0 23.467h32"></path>
</symbol>
<symbol id="umbrella" viewBox="0 0 32 32">
<path fill="none" stroke-linejoin="round" stroke-linecap="round" stroke-miterlimit="4" stroke-width="0.75" d="M22.097 28.576c0 1.684-1.365 3.049-3.049 3.049s-3.049-1.365-3.049-3.049v0-25.279"></path>
<path d="M15.454 1.391c-8.168 0.254-14.697 5.615-14.697 12.195l1.613-0.737c2.287-1.054 5.208-1.016 7.431 0.063l0.991 0.483c-0.61-6.009 3.519-10.798 4.662-11.992zM16.546 1.391c1.143 1.207 5.284 5.996 4.662 12.004l0.991-0.483c1.114-0.529 2.421-0.838 3.8-0.838 1.314 0 2.562 0.281 3.688 0.785l-0.057-0.023 1.613 0.749c0-6.593-6.529-11.954-14.697-12.195z"></path>
<path d="M16 1.938c-1.080 1.143-5.056 5.831-4.446 11.458l0.508-0.254c1.15-0.574 2.505-0.909 3.938-0.909s2.788 0.336 3.99 0.933l-0.052-0.024 0.508 0.254c0.61-5.627-3.366-10.302-4.446-11.458z"></path>
</symbol>
<symbol id="wind" viewBox="0 0 32 32">
<path d="M24.989 6.769c0.702-0.737 1.691-1.195 2.788-1.195 2.125 0 3.848 1.723 3.848 3.848 0 0.006 0 0.013-0 0.019v-0.001c0 2.122-1.736 3.858-3.858 3.858h-27.392zM13.801 25.23c0.702 0.737 1.691 1.195 2.788 1.195 2.125 0 3.848-1.723 3.848-3.848 0-0.006 0-0.013-0-0.019v0.001c0-2.122-1.736-3.858-3.858-3.858h-16.204z"></path>
</symbol>
<symbol id="sleet" viewBox="0 0 32 32">
<path d="M24.318 23.745c2.218 0 4.016-1.798 4.016-4.016s-1.798-4.016-4.016-4.016v0l-0.179 0.007c0.109-0.43 0.173-0.923 0.173-1.431 0-3.327-2.697-6.024-6.024-6.024-2.152 0-4.040 1.128-5.106 2.826l-0.015 0.025c-0.585-0.352-1.291-0.56-2.046-0.56-2.218 0-4.016 1.798-4.016 4.016 0 0.228 0.019 0.452 0.056 0.67l-0.003-0.024c-1.998 0.398-3.483 2.137-3.483 4.224 0 2.37 1.917 4.293 4.285 4.303h0.001z"></path>
<path d="M11.984 28.908c-0.317 0-0.574-0.257-0.574-0.574v0-0.86c0-0.317 0.257-0.574 0.574-0.574s0.574 0.257 0.574 0.574v0 0.86c0 0.317-0.257 0.574-0.574 0.574v0zM16 25.322c-0.317 0-0.574-0.257-0.574-0.574v0-0.86c0-0.317 0.257-0.574 0.574-0.574s0.574 0.257 0.574 0.574v0 0.86c0 0.317-0.257 0.574-0.574 0.574v0zM20.016 31.776c-0.317 0-0.574-0.257-0.574-0.574v0-0.86c0-0.317 0.257-0.574 0.574-0.574s0.574 0.257 0.574 0.574v0 0.86c0 0.317-0.257 0.574-0.574 0.574v0z"></path>
<path d="M13.39 24.067l-0.416-0.237c0.017-0.069 0.027-0.148 0.027-0.23s-0.010-0.161-0.028-0.236l0.001 0.007 0.416-0.237c0.085-0.051 0.141-0.142 0.141-0.247 0-0.054-0.015-0.105-0.042-0.149l0.001 0.001c-0.050-0.088-0.143-0.146-0.25-0.146-0.053 0-0.103 0.014-0.146 0.040l-0.415 0.236c-0.112-0.104-0.249-0.183-0.402-0.228l-0.007-0.002v-0.473c0-0.158-0.129-0.287-0.287-0.287s-0.287 0.129-0.287 0.287v0.473c-0.158 0.043-0.294 0.122-0.416 0.23l-0.409-0.237c-0.043-0.026-0.094-0.042-0.15-0.042-0.108 0-0.202 0.060-0.251 0.148l-0.001 0.001c-0.024 0.041-0.039 0.091-0.039 0.144 0 0.107 0.058 0.2 0.145 0.249l0.417 0.237c-0.017 0.069-0.027 0.148-0.027 0.23s0.010 0.161 0.028 0.236l-0.001-0.007-0.416 0.237c-0.088 0.050-0.146 0.143-0.146 0.25 0 0.053 0.014 0.103 0.040 0.146l-0.001-0.001c0.050 0.090 0.144 0.15 0.252 0.15 0.055 0 0.107-0.016 0.151-0.043l-0.001 0.001 0.409-0.237c0.112 0.104 0.249 0.183 0.402 0.228l0.007 0.002v0.473c0 0.158 0.129 0.287 0.287 0.287s0.294-0.129 0.294-0.287v-0.473c0.151-0.043 0.287-0.122 0.409-0.23l0.416 0.237c0.043 0.021 0.093 0.036 0.143 0.036 0.001 0 0.002 0 0.002 0 0.106 0 0.198-0.057 0.248-0.142l0.001-0.001c0.026-0.042 0.041-0.093 0.041-0.147 0-0.105-0.056-0.196-0.14-0.246l-0.001-0.001zM11.769 23.974c-0.13-0.076-0.215-0.214-0.215-0.373 0-0.237 0.193-0.43 0.43-0.43 0 0 0 0 0.001 0h-0c0.002-0 0.005-0 0.008-0 0.237 0 0.43 0.193 0.43 0.43 0 0.079-0.021 0.154-0.059 0.217l0.001-0.002c-0.077 0.13-0.217 0.216-0.377 0.216-0.080 0-0.155-0.021-0.22-0.059l0.002 0.001zM17.405 30.521l-0.416-0.23c0.017-0.070 0.027-0.151 0.027-0.233s-0.010-0.163-0.029-0.24l0.001 0.007 0.416-0.237c0.085-0.051 0.141-0.142 0.141-0.247 0-0.054-0.015-0.105-0.042-0.149l0.001 0.001c-0.051-0.085-0.142-0.141-0.247-0.141-0.054 0-0.105 0.015-0.149 0.042l-0.415 0.236c-0.112-0.107-0.249-0.189-0.402-0.235l-0.007-0.002v-0.473c0-0.158-0.129-0.287-0.287-0.287s-0.287 0.129-0.287 0.287v0.473c-0.158 0.043-0.294 0.122-0.416 0.23l-0.409-0.23c-0.043-0.027-0.096-0.044-0.153-0.044-0.106 0-0.199 0.058-0.248 0.143l-0.001 0.001c-0.024 0.041-0.039 0.091-0.039 0.144 0 0.107 0.058 0.2 0.145 0.249l0.417 0.237c-0.017 0.069-0.027 0.148-0.027 0.23s0.010 0.161 0.028 0.236l-0.001-0.007-0.416 0.237c-0.088 0.050-0.146 0.143-0.146 0.25 0 0.053 0.014 0.103 0.040 0.146l-0.001-0.001c0.050 0.090 0.144 0.15 0.252 0.15 0.055 0 0.107-0.016 0.151-0.043l-0.001 0.001 0.409-0.237c0.112 0.104 0.249 0.183 0.402 0.228l0.007 0.002v0.473c0 0.158 0.129 0.287 0.287 0.287s0.294-0.129 0.294-0.287v-0.473c0.151-0.043 0.287-0.122 0.409-0.23l0.416 0.237c0.043 0.021 0.093 0.036 0.143 0.036 0.001 0 0.002 0 0.002 0 0.106 0 0.198-0.057 0.248-0.142l0.001-0.001c0.026-0.042 0.041-0.093 0.041-0.147 0-0.105-0.056-0.196-0.14-0.246l-0.001-0.001zM15.785 30.428c-0.13-0.076-0.215-0.214-0.215-0.373 0-0.237 0.193-0.43 0.43-0.43 0 0 0 0 0.001 0h-0c0.002-0 0.005-0 0.008-0 0.237 0 0.43 0.193 0.43 0.43 0 0.079-0.021 0.154-0.059 0.217l0.001-0.002c-0.077 0.13-0.217 0.216-0.377 0.216-0.080 0-0.155-0.021-0.22-0.059l0.002 0.001zM21.421 26.936l-0.416-0.23c0.017-0.070 0.027-0.151 0.027-0.233s-0.010-0.163-0.029-0.24l0.001 0.007 0.416-0.237c0.085-0.051 0.141-0.142 0.141-0.247 0-0.054-0.015-0.105-0.042-0.149l0.001 0.001c-0.050-0.088-0.143-0.146-0.25-0.146-0.053 0-0.103 0.014-0.146 0.040l-0.415 0.236c-0.112-0.104-0.249-0.183-0.402-0.228l-0.007-0.002v-0.473c0-0.158-0.129-0.287-0.287-0.287s-0.287 0.129-0.287 0.287v0.473c-0.158 0.043-0.294 0.122-0.416 0.23l-0.409-0.237c-0.043-0.026-0.094-0.042-0.15-0.042-0.108 0-0.202 0.060-0.251 0.148l-0.001 0.001c-0.024 0.041-0.039 0.091-0.039 0.144 0 0.107 0.058 0.2 0.145 0.249l0.417 0.237c-0.017 0.069-0.027 0.148-0.027 0.23s0.010 0.161 0.028 0.236l-0.001-0.007-0.416 0.237c-0.088 0.050-0.146 0.143-0.146 0.25 0 0.053 0.014 0.103 0.040 0.146l-0.001-0.001c0.050 0.090 0.144 0.15 0.252 0.15 0.055 0 0.107-0.016 0.151-0.043l-0.001 0.001 0.409-0.237c0.112 0.104 0.249 0.183 0.402 0.228l0.007 0.002v0.473c0 0.158 0.129 0.287 0.287 0.287s0.294-0.129 0.294-0.287v-0.473c0.151-0.043 0.287-0.122 0.409-0.23l0.416 0.237c0.043 0.021 0.093 0.036 0.143 0.036 0.001 0 0.002 0 0.002 0 0.106 0 0.198-0.057 0.248-0.142l0.001-0.001c0.026-0.042 0.041-0.093 0.041-0.147 0-0.105-0.056-0.196-0.14-0.246l-0.001-0.001zM19.801 26.842c-0.13-0.076-0.215-0.214-0.215-0.373 0-0.237 0.193-0.43 0.43-0.43 0 0 0 0 0.001 0h-0c0.002-0 0.005-0 0.008-0 0.237 0 0.43 0.193 0.43 0.43 0 0.079-0.021 0.154-0.059 0.217l0.001-0.002c-0.077 0.13-0.217 0.216-0.377 0.216-0.080 0-0.155-0.021-0.22-0.059l0.002 0.001z"></path>
</symbol>
<symbol id="thunderstorm" viewBox="0 0 32 32">
<path d="M24.626 24.031c2.3 0 4.164-1.864 4.164-4.164s-1.864-4.164-4.164-4.164v0l-0.186 0.007c0.114-0.446 0.179-0.957 0.179-1.484 0-3.45-2.797-6.246-6.246-6.246-2.232 0-4.19 1.17-5.295 2.931l-0.015 0.026c-0.607-0.365-1.339-0.581-2.121-0.581-2.3 0-4.164 1.864-4.164 4.164 0 0.237 0.020 0.469 0.058 0.695l-0.003-0.025c-2.072 0.413-3.611 2.217-3.611 4.38 0 2.458 1.988 4.452 4.443 4.462h0.001z"></path>
<path   fill="#666" d="M14.81 18.751l-2.379 7.139h2.379l-1.19 5.949 5.949-8.328h-3.569l2.379-4.759h-3.569z"></path>
</symbol>
<symbol id="hail" viewBox="0 0 32 32">
<path d="M24.775 24.17c2.34 0 4.236-1.897 4.236-4.236s-1.897-4.236-4.236-4.236v0l-0.189 0.008c0.116-0.453 0.182-0.974 0.182-1.51 0-3.509-2.845-6.354-6.354-6.354-2.27 0-4.262 1.191-5.386 2.981l-0.016 0.026c-0.617-0.371-1.362-0.591-2.158-0.591-2.339 0-4.236 1.897-4.236 4.236 0 0.241 0.020 0.477 0.059 0.707l-0.004-0.025c-2.108 0.42-3.674 2.255-3.674 4.456 0 2.501 2.022 4.529 4.52 4.539h0.001z"></path>
<path d="M11.764 23.111c-0.501 0-0.908 0.406-0.908 0.908s0.406 0.908 0.908 0.908v0c0.501 0 0.908-0.406 0.908-0.908s-0.406-0.908-0.908-0.908v0zM16 29.919c-0.501 0-0.908 0.406-0.908 0.908s0.406 0.908 0.908 0.908v0c0.501 0 0.908-0.406 0.908-0.908s-0.406-0.908-0.908-0.908v0zM20.236 25.38c-0.501 0-0.908 0.406-0.908 0.908s0.406 0.908 0.908 0.908v0c0.501 0 0.908-0.406 0.908-0.908s-0.406-0.908-0.908-0.908v0z"></path>
</symbol>
<symbol id="hurricane" viewBox="0 0 32 32">
<path stroke-linejoin="miter" stroke-linecap="round" stroke-miterlimit="10" stroke-width="1.125" d="M25.493 16c0 5.243-4.25 9.493-9.493 9.493s-9.493-4.25-9.493-9.493v0c0-5.243 4.25-9.493 9.493-9.493s9.493 4.25 9.493 9.493v0zM9.959 0.995l-0.41 0.831c-1.914 3.773-3.035 8.226-3.035 12.94 0 0.852 0.037 1.696 0.108 2.529l-0.008-0.108M22.041 30.995l0.421-0.831c2.373-4.747 3.387-10.075 2.945-15.372v0"></path>
</symbol>
<symbol id="clearday" viewBox="0 0 32 32">
<path d="M22.883 16c0 3.802-3.082 6.883-6.883 6.883s-6.883-3.082-6.883-6.883c0-3.802 3.082-6.883 6.883-6.883s6.883 3.082 6.883 6.883z"></path>
<path d="M16 5.323v-4.073zM16 30.75v-4.073zM23.555 8.445l2.868-2.868zM5.577 26.423l2.876-2.876zM8.453 8.437l-2.868-2.868zM26.44 26.423l-2.876-2.876zM5.323 16h-4.073zM30.75 16h-4.073z"></path>
</symbol>
<symbol id="clearnight" viewBox="0 0 32 32">
<path d="M29.552 19.882c-0.038 0-0.083 0.001-0.127 0.001-8.469 0-15.341-6.836-15.4-15.291l-0-0.006c0-1.329 0.196-2.611 0.52-3.836-7.755 0.821-13.751 7.305-13.794 15.199v0.004c0 8.445 6.932 15.296 15.504 15.296 7.221 0 13.263-4.875 14.996-11.461-0.555 0.058-1.132 0.092-1.71 0.092z"></path>
</symbol>
<symbol id="cloudy" viewBox="0 0 32 32">
<path d="M26.526 25.8c2.807 0 5.082-2.275 5.082-5.082s-2.275-5.082-5.082-5.082v0l-0.227 0.009c0.139-0.544 0.218-1.168 0.218-1.811 0-4.21-3.413-7.622-7.622-7.622-2.723 0-5.113 1.428-6.461 3.576l-0.019 0.032c-0.74-0.445-1.634-0.709-2.589-0.709-2.807 0-5.082 2.275-5.082 5.082 0 0.289 0.024 0.572 0.070 0.848l-0.004-0.030c-2.528 0.504-4.407 2.705-4.407 5.345 0 3 2.426 5.433 5.422 5.445h0.001z"></path>
</symbol>
</defs>
</svg>
