<svg xmlns="http://www.w3.org/2000/svg" xmlns:xlink="http://www.w3.org/1999/xlink" viewBox="0 0 512 512"><defs><linearGradient id="a" x1="52.7" x2="133.4" y1="9.6" y2="149.3" gradientUnits="userSpaceOnUse"><stop offset="0" stop-color="#9ca3af"/><stop offset=".5" stop-color="#9ca3af"/><stop offset="1" stop-color="#6b7280"/></linearGradient><linearGradient id="b" x1="99.5" x2="232.6" y1="30.7" y2="261.4" gradientUnits="userSpaceOnUse"><stop offset="0" stop-color="#6b7280"/><stop offset=".5" stop-color="#6b7280"/><stop offset="1" stop-color="#4b5563"/></linearGradient><linearGradient id="c" x1="1399.3" x2="1408.7" y1="-1137.3" y2="-1112.7" gradientTransform="rotate(-9 8016.182 8229.021)" gradientUnits="userSpaceOnUse"><stop offset="0" stop-color="#0b65ed"/><stop offset=".5" stop-color="#0a5ad4"/><stop offset="1" stop-color="#0950bc"/></linearGradient><linearGradient xlink:href="#c" id="d" x1="1454.6" x2="1464" y1="-1128.6" y2="-1104"/><linearGradient xlink:href="#c" id="e" x1="1509.9" x2="1519.3" y1="-1119.8" y2="-1095.2"/><linearGradient id="f" x1="11.4" x2="32.8" y1="5.9" y2="43.1" gradientUnits="userSpaceOnUse"><stop offset="0" stop-color="#86c3db"/><stop offset=".5" stop-color="#86c3db"/><stop offset="1" stop-color="#5eafcf"/></linearGradient><linearGradient xlink:href="#f" id="g" x1="67.4" x2="88.8" y1="5.9" y2="43.1"/><linearGradient xlink:href="#f" id="h" x1="123.4" x2="144.8" y1="5.9" y2="43.1"/><symbol id="j" viewBox="0 0 200.3 126.1"><path fill="url('#a')" stroke="#848b98" stroke-miterlimit="10" d="M.5 93.2a32.4 32.4 0 0 0 32.4 32.4h129.8v-.1l2.3.1a34.8 34.8 0 0 0 6.5-68.9 32.4 32.4 0 0 0-48.5-33 48.6 48.6 0 0 0-88.6 37.1h-1.5A32.4 32.4 0 0 0 .5 93.1Z"/></symbol><symbol id="k" viewBox="0 0 350 222"><path fill="url('#b')" stroke="#5b6472" stroke-miterlimit="10" stroke-width="6" d="m291 107-2.5.1A83.9 83.9 0 0 0 135.6 43 56 56 0 0 0 51 91a56.6 56.6 0 0 0 .8 9A60 60 0 0 0 63 219l4-.2v.2h224a56 56 0 0 0 0-112Z"/></symbol><symbol id="i" overflow="visible" viewBox="0 0 398 222"><use xlink:href="#j" width="200.3" height="126.1" transform="translate(198 27)"><animateTransform additive="sum" attributeName="transform" dur="6s" repeatCount="indefinite" type="translate" values="-9 0; 9 0; -9 0"/></use><use xlink:href="#k" width="350" height="222"><animateTransform additive="sum" attributeName="transform" dur="6s" repeatCount="indefinite" type="translate" values="-18 0; 18 0; -18 0"/></use></symbol><symbol id="m" overflow="visible" viewBox="0 0 156.2 49"><g><animateTransform id="s1" additive="sum" attributeName="transform" begin="0s; s1.end+1s" dur="2s" type="translate" values="0 -36; 0 92;"/></g><g><animateTransform id="s2" additive="sum" attributeName="transform" begin="-.83s; s2.end+1s" dur="2s" type="translate" values="0 -36; 0 92;"/></g><g><animateTransform id="s3" additive="sum" attributeName="transform" begin=".83s; s3.end+1s" dur="2s" type="translate" values="0 -36; 0 92;"/></g></symbol><symbol id="l" overflow="visible" viewBox="0 0 156.2 49"><use xlink:href="#m" width="156.2" height="49"/></symbol></defs><use xlink:href="#i" width="398" height="222" transform="translate(68.84 145)"/><use xlink:href="#l" width="156.2" height="49" transform="translate(177.9 337.5)"/></svg>