<svg xmlns="http://www.w3.org/2000/svg" xmlns:xlink="http://www.w3.org/1999/xlink" viewBox="0 0 512 512"><defs><linearGradient id="a" x1="99.5" x2="232.6" y1="30.7" y2="261.4" gradientUnits="userSpaceOnUse"><stop offset="0" stop-color="#f3f7fe"/><stop offset=".5" stop-color="#f3f7fe"/><stop offset="1" stop-color="#deeafb"/></linearGradient><linearGradient id="b" x1="34.7" x2="119.2" y1="18.6" y2="165" gradientUnits="userSpaceOnUse"><stop offset="0" stop-color="#86c3db"/><stop offset=".5" stop-color="#86c3db"/><stop offset="1" stop-color="#5eafcf"/></linearGradient><linearGradient id="c" x1="1301.9" x2="1311.3" y1="-576" y2="-551.3" gradientTransform="rotate(-9 6634.063 6929.524)" gradientUnits="userSpaceOnUse"><stop offset="0" stop-color="#0b65ed"/><stop offset=".5" stop-color="#0a5ad4"/><stop offset="1" stop-color="#0950bc"/></linearGradient><linearGradient xlink:href="#c" id="d" x1="1357.2" x2="1366.6" y1="-567.2" y2="-542.6"/><linearGradient xlink:href="#c" id="e" x1="1412.5" x2="1422" y1="-558.5" y2="-533.8"/><symbol id="g" viewBox="0 0 172 172"><path fill="url('#b')" stroke="#72b9d5" stroke-linecap="round" stroke-linejoin="round" stroke-width="4" d="M160.6 107.4a84.8 84.8 0 0 1-85.4-84.3A83.3 83.3 0 0 1 78 2 84.7 84.7 0 0 0 2 85.7 84.8 84.8 0 0 0 87.4 170a85.2 85.2 0 0 0 82.6-63.1 88 88 0 0 1-9.4.5Z"><animateTransform additive="sum" attributeName="transform" dur="6s" repeatCount="indefinite" type="rotate" values="-15 86 86; 9 86 86; -15 86 86"/></path></symbol><symbol id="h" viewBox="0 0 350 222"><path fill="url('#a')" stroke="#e6effc" stroke-miterlimit="10" stroke-width="6" d="m291 107-2.5.1A83.9 83.9 0 0 0 135.6 43 56 56 0 0 0 51 91a56.6 56.6 0 0 0 .8 9A60 60 0 0 0 63 219l4-.2v.2h224a56 56 0 0 0 0-112Z"/></symbol><symbol id="f" viewBox="0 0 351 246"><use xlink:href="#g" width="172" height="172"/><use xlink:href="#h" width="350" height="222" transform="translate(1 24)"/></symbol></defs><use xlink:href="#f" width="351" height="246" transform="translate(80 121)"/></svg>