<svg xmlns="http://www.w3.org/2000/svg" xmlns:xlink="http://www.w3.org/1999/xlink" viewBox="0 0 512 512"><defs><linearGradient id="a" x1="99.5" x2="232.6" y1="30.7" y2="261.4" gradientUnits="userSpaceOnUse"><stop offset="0" stop-color="#f3f7fe"/><stop offset=".5" stop-color="#f3f7fe"/><stop offset="1" stop-color="#deeafb"/></linearGradient><linearGradient id="b" x1="34.7" x2="119.2" y1="18.6" y2="165" gradientUnits="userSpaceOnUse"><stop offset="0" stop-color="#86c3db"/><stop offset=".5" stop-color="#86c3db"/><stop offset="1" stop-color="#5eafcf"/></linearGradient><linearGradient xlink:href="#b" id="c" x1="11.4" x2="32.8" y1="5.9" y2="43.1"/><linearGradient xlink:href="#b" id="d" x1="67.4" x2="88.8" y1="95.9" y2="133.1"/><linearGradient xlink:href="#b" id="e" x1="123.4" x2="144.8" y1="45.9" y2="83.1"/><symbol id="g" viewBox="0 0 172 172"><path fill="url('#b')" stroke="#72b9d5" stroke-linecap="round" stroke-linejoin="round" stroke-width="4" d="M160.6 107.4a84.8 84.8 0 0 1-85.4-84.3A83.3 83.3 0 0 1 78 2 84.7 84.7 0 0 0 2 85.7 84.8 84.8 0 0 0 87.4 170a85.2 85.2 0 0 0 82.6-63.1 88 88 0 0 1-9.4.5Z"/></symbol><symbol id="h" viewBox="0 0 350 222"><path fill="url('#a')" stroke="#e6effc" stroke-miterlimit="10" stroke-width="6" d="m291 107-2.5.1A83.9 83.9 0 0 0 135.6 43 56 56 0 0 0 51 91a56.6 56.6 0 0 0 .8 9A60 60 0 0 0 63 219l4-.2v.2h224a56 56 0 0 0 0-112Z"/></symbol><symbol id="f" viewBox="0 0 351 246"><use xlink:href="#g" width="172" height="172"/><use xlink:href="#h" width="350" height="222" transform="translate(1 24)"/></symbol><symbol id="i" viewBox="0 0 156.2 139"><path fill="url('#c')" stroke="#86c3db" stroke-miterlimit="10" d="m41.7 31-5.8-3.3a13.7 13.7 0 0 0 0-6.5l5.8-3.2a4 4 0 0 0 1.5-5.5 4 4 0 0 0-5.6-1.5l-5.8 3.3a13.6 13.6 0 0 0-2.6-2 13.8 13.8 0 0 0-3-1.3V4.5a4 4 0 0 0-8.1 0v6.6a14.3 14.3 0 0 0-5.7 3.2L6.6 11A4 4 0 0 0 1 12.5 4 4 0 0 0 2.5 18l5.8 3.3a13.7 13.7 0 0 0 0 6.5L2.5 31A4 4 0 0 0 1 36.5a4 4 0 0 0 3.5 2 4 4 0 0 0 2-.5l5.8-3.3a13.6 13.6 0 0 0 2.6 2 13.8 13.8 0 0 0 3 1.2v6.6a4 4 0 0 0 8.2 0v-6.6a14.2 14.2 0 0 0 5.6-3.2l6 3.3a4 4 0 0 0 2 .5 4 4 0 0 0 3.4-2 4 4 0 0 0-1.4-5.5ZM19 29.7a6 6 0 0 1-2.3-8.2 6.1 6.1 0 0 1 5.3-3 6.2 6.2 0 0 1 3 .8 6 6 0 0 1 2.2 8.2 6.1 6.1 0 0 1-8.2 2.2Z"/><path fill="url('#d')" stroke="#86c3db" stroke-miterlimit="10" d="m97.7 121-5.8-3.3a13.7 13.7 0 0 0 0-6.5l5.8-3.2a4 4 0 0 0 1.5-5.5 4 4 0 0 0-5.6-1.5l-5.8 3.3a13.6 13.6 0 0 0-2.6-2 13.8 13.8 0 0 0-3-1.3v-6.5a4 4 0 0 0-8.1 0v6.6a14.3 14.3 0 0 0-5.7 3.2l-5.8-3.3a4 4 0 0 0-5.6 1.5 4 4 0 0 0 1.5 5.5l5.8 3.3a13.7 13.7 0 0 0 0 6.5l-5.8 3.2a4 4 0 0 0-1.5 5.5 4 4 0 0 0 3.5 2 4 4 0 0 0 2-.5l5.8-3.3a13.6 13.6 0 0 0 2.7 2 13.8 13.8 0 0 0 3 1.2v6.6a4 4 0 0 0 8 0V128a14.2 14.2 0 0 0 5.7-3.2l5.8 3.3a4 4 0 0 0 2 .5 4 4 0 0 0 3.5-2 4 4 0 0 0-1.3-5.5ZM75 119.7a6 6 0 0 1-2.3-8.2 6.1 6.1 0 0 1 5.3-3 6.2 6.2 0 0 1 3 .8 6 6 0 0 1 2.2 8.2 6.1 6.1 0 0 1-8.2 2.2Z"/><path fill="url('#e')" stroke="#86c3db" stroke-miterlimit="10" d="m153.7 71-5.8-3.3a13.7 13.7 0 0 0 0-6.5l5.8-3.2a4 4 0 0 0 1.5-5.5 4 4 0 0 0-5.6-1.5l-5.8 3.3a13.6 13.6 0 0 0-2.6-2 13.8 13.8 0 0 0-3-1.3v-6.5a4 4 0 0 0-8.1 0v6.6a14.3 14.3 0 0 0-5.7 3.2l-5.8-3.3a4 4 0 0 0-5.6 1.5 4 4 0 0 0 1.5 5.5l5.8 3.3a13.7 13.7 0 0 0 0 6.5l-5.8 3.2a4 4 0 0 0-1.5 5.5 4 4 0 0 0 3.5 2 4 4 0 0 0 2-.5l5.8-3.3a13.6 13.6 0 0 0 2.7 2 13.8 13.8 0 0 0 3 1.2v6.6a4 4 0 0 0 8 0v-6.6a14.2 14.2 0 0 0 5.7-3.2l5.8 3.3a4 4 0 0 0 2 .5 4 4 0 0 0 3.5-2 4 4 0 0 0-1.3-5.5ZM131 69.7a6 6 0 0 1-2.3-8.2 6.1 6.1 0 0 1 5.3-3 6.2 6.2 0 0 1 3 .8 6 6 0 0 1 2.2 8.2 6.1 6.1 0 0 1-8.2 2.2Z"/></symbol></defs><use xlink:href="#f" width="351" height="246" transform="translate(80 121)"/><use xlink:href="#i" width="156.2" height="139" transform="translate(177.9 337.5)"/></svg>