<svg xmlns="http://www.w3.org/2000/svg" xmlns:xlink="http://www.w3.org/1999/xlink" viewBox="0 0 512 512"><defs><linearGradient id="a" x1="99.5" x2="232.6" y1="30.7" y2="261.4" gradientUnits="userSpaceOnUse"><stop offset="0" stop-color="#f3f7fe"/><stop offset=".5" stop-color="#f3f7fe"/><stop offset="1" stop-color="#deeafb"/></linearGradient><linearGradient id="b" x1="1399.3" x2="1408.7" y1="-1137.3" y2="-1112.7" gradientTransform="rotate(-9 8016.182 8229.021)" gradientUnits="userSpaceOnUse"><stop offset="0" stop-color="#0b65ed"/><stop offset=".5" stop-color="#0a5ad4"/><stop offset="1" stop-color="#0950bc"/></linearGradient><linearGradient xlink:href="#b" id="c" x1="1454.6" x2="1464" y1="-1128.6" y2="-1104"/><linearGradient xlink:href="#b" id="d" x1="1509.9" x2="1519.3" y1="-1119.8" y2="-1095.2"/><linearGradient id="e" x1="11.4" x2="32.8" y1="5.9" y2="43.1" gradientUnits="userSpaceOnUse"><stop offset="0" stop-color="#86c3db"/><stop offset=".5" stop-color="#86c3db"/><stop offset="1" stop-color="#5eafcf"/></linearGradient><linearGradient xlink:href="#e" id="f" x1="67.4" x2="88.8" y1="5.9" y2="43.1"/><linearGradient xlink:href="#e" id="g" x1="123.4" x2="144.8" y1="5.9" y2="43.1"/><symbol id="h" viewBox="0 0 350 222"><path fill="url('#a')" stroke="#e6effc" stroke-miterlimit="10" stroke-width="6" d="m291 107-2.5.1A83.9 83.9 0 0 0 135.6 43 56 56 0 0 0 51 91a56.6 56.6 0 0 0 .8 9A60 60 0 0 0 63 219l4-.2v.2h224a56 56 0 0 0 0-112Z"/></symbol><symbol id="j" overflow="visible" viewBox="0 0 156.2 49"><g><animateTransform id="s1" additive="sum" attributeName="transform" begin="0s; s1.end+1s" dur="2s" type="translate" values="0 -36; 0 92;"/></g><g><animateTransform id="s2" additive="sum" attributeName="transform" begin="-.83s; s2.end+1s" dur="2s" type="translate" values="0 -36; 0 92;"/></g><g><animateTransform id="s3" additive="sum" attributeName="transform" begin=".83s; s3.end+1s" dur="2s" type="translate" values="0 -36; 0 92;"/></g></symbol><symbol id="i" overflow="visible" viewBox="0 0 156.2 49"><use xlink:href="#j" width="156.2" height="49"/></symbol></defs><use xlink:href="#h" width="350" height="222" transform="translate(81 145)"/><use xlink:href="#i" width="156.2" height="49" transform="translate(177.9 337.5)"/></svg>