<svg aria-hidden="true" style="width:0;height:0;position:absolute;overflow:hidden" xmlns="http://www.w3.org/2000/svg"><defs><symbol id="icon-location" viewBox="0 0 32 32"><path d="M16 0C10.477 0 6 4.477 6 10c0 10 10 22 10 22s10-12 10-22c0-5.523-4.477-10-10-10zm0 16a6 6 0 1 1 0-12 6 6 0 0 1 0 12z"/></symbol><symbol id="icon-search" viewBox="0 0 32 32"><path d="m31.008 27.231-7.58-6.447c-.784-.705-1.622-1.029-2.299-.998a11.954 11.954 0 0 0 2.87-7.787c0-6.627-5.373-12-12-12s-12 5.373-12 12 5.373 12 12 12c2.972 0 5.691-1.081 7.787-2.87-.031.677.293 1.515.998 2.299l6.447 7.58c1.104 1.226 2.907 1.33 4.007.23s.997-2.903-.23-4.007zM12 20a8 8 0 1 1 0-16 8 8 0 0 1 0 16z"/></symbol><symbol id="celsius" viewBox="0 0 32 32"><path d="M6.636 6.229a4.972 4.972 0 0 0-5.158 5.139v-.008l-.002.134a5.052 5.052 0 0 0 5.052 5.052l.114-.001h-.006l.135.002a5.026 5.026 0 0 0 5.023-5.196v.008a4.945 4.945 0 0 0-5.169-5.132h.011zm1.675 6.834c-.425.452-.984.665-1.675.665s-1.223-.213-1.649-.665c-.425-.425-.638-.984-.638-1.702s.186-1.25.612-1.675c.452-.425.984-.638 1.675-.638s1.25.213 1.675.638.638.984.638 1.675c0 .718-.213 1.276-.638 1.702zm14.119 8.721c-1.33 0-2.313-.532-3.058-1.516s-1.064-2.393-1.064-4.254.346-3.138 1.064-4.121c.745-.984 1.755-1.489 3.058-1.489.931 0 1.702.266 2.287.798a3.447 3.447 0 0 1 1.115 2.164l.001.016h4.627c-.266-2.127-1.09-3.829-2.526-5.052-1.462-1.223-3.324-1.861-5.637-1.861A8.218 8.218 0 0 0 16 9.07l-.004.004c-1.649 1.728-2.473 4.068-2.473 6.993s.798 5.238 2.446 6.993a8.221 8.221 0 0 0 6.345 2.579l-.017.001c2.313 0 4.254-.612 5.744-1.861a7.221 7.221 0 0 0 2.446-5.201v-.011h-4.653c-.266 2.127-1.409 3.191-3.404 3.191z"/></symbol><symbol id="fahrenheit" viewBox="0 0 32 32"><path d="M7.325 5.751a6.248 6.248 0 0 0-.203-.004c-2.959 0-5.359 2.415-5.359 5.394l.003.186v-.009a6.303 6.303 0 0 0-.002.145c0 3.027 2.438 5.481 5.445 5.481l.123-.001h-.006l.146.002c2.991 0 5.416-2.441 5.416-5.452a5.6 5.6 0 0 0-.003-.184v.009a6.45 6.45 0 0 0 .004-.207c0-2.963-2.386-5.366-5.33-5.366-.082 0-.164.002-.245.006h.012zm1.805 7.413c-.458.49-1.06.721-1.805.721s-1.318-.231-1.777-.721c-.458-.462-.688-1.067-.688-1.846s.201-1.356.659-1.817c.487-.462 1.06-.692 1.805-.692s1.347.231 1.805.692.688 1.067.688 1.817c0 .779-.229 1.385-.688 1.846zm21.148-2.25V6.5h-14.93v19.702h5.158v-7.558h8.282v-4.212h-8.282v-3.519h9.772z"/></symbol><symbol id="icon-circle-right" viewBox="0 0 32 32"><path d="M16 0C7.163 0 0 7.163 0 16s7.163 16 16 16 16-7.163 16-16S24.837 0 16 0zm0 29C8.82 29 3 23.18 3 16S8.82 3 16 3s13 5.82 13 13-5.82 13-13 13z"/><path d="m11.086 22.086 2.829 2.829 8.914-8.914-8.914-8.914-2.828 2.828 6.086 6.086z"/></symbol><symbol id="icon-circle-left" viewBox="0 0 32 32"><path d="M16 32c8.837 0 16-7.163 16-16S24.837 0 16 0 0 7.163 0 16s7.163 16 16 16zm0-29c7.18 0 13 5.82 13 13s-5.82 13-13 13S3 23.18 3 16 8.82 3 16 3z"/><path d="m20.914 9.914-2.829-2.829-8.914 8.914 8.914 8.914 2.828-2.828-6.086-6.086z"/></symbol><symbol id="snowflake" viewBox="0 0 32 32"><path stroke-linejoin="round" stroke-linecap="round" stroke-width=".938" d="m28.486 20.219-3.692-2.12a9.064 9.064 0 0 0 0-4.198l3.692-2.12a2.585 2.585 0 1 0-2.596-4.472l.012-.007-3.692 2.131a8.968 8.968 0 0 0-3.564-2.072l-.064-.017V3.081a2.583 2.583 0 0 0-5.166 0v4.263a9.065 9.065 0 0 0-3.632 2.092l.004-.004-3.692-2.131A2.585 2.585 0 0 0 3.5 11.772l.012.007 3.692 2.12a9.214 9.214 0 0 0 0 4.198l-3.692 2.11a2.585 2.585 0 1 0 2.596 4.472l-.012.007 3.692-2.131a8.968 8.968 0 0 0 3.564 2.072l.064.017v4.273a2.583 2.583 0 0 0 5.166 0v-4.273a9.072 9.072 0 0 0 3.632-2.082l-.005.004 3.692 2.131a2.561 2.561 0 0 0 3.524-.935l.007-.012a2.583 2.583 0 0 0-.935-3.524l-.012-.007zm-14.423-.861A3.881 3.881 0 0 1 12.123 16a3.877 3.877 0 0 1 5.833-3.348l-.018-.01A3.881 3.881 0 0 1 19.878 16a3.877 3.877 0 0 1-5.833 3.348l.018.01z"/></symbol><symbol id="raindrop" viewBox="0 0 32 32"><path d="M16 1.252c-5.986 8.85-9.833 14.381-9.833 19.753s4.4 9.747 9.833 9.747 9.833-4.364 9.833-9.747S21.986 10.09 16 1.252z"/></symbol><symbol id="mist" viewBox="0 0 32 32"><path stroke-linecap="round" stroke-miterlimit="10" stroke-width="1.125" d="M0 8.533h32M0 16h32M0 23.467h32"/></symbol><symbol id="umbrella" viewBox="0 0 32 32"><path fill="none" stroke-linejoin="round" stroke-linecap="round" stroke-width=".75" d="M22.097 28.576a3.049 3.049 0 1 1-6.098 0V3.297"/><path d="M15.454 1.391C7.286 1.645.757 7.006.757 13.586l1.613-.737c2.287-1.054 5.208-1.016 7.431.063l.991.483c-.61-6.009 3.519-10.798 4.662-11.992zm1.092 0c1.143 1.207 5.284 5.996 4.662 12.004l.991-.483a8.9 8.9 0 0 1 3.8-.838c1.314 0 2.562.281 3.688.785l-.057-.023 1.613.749c0-6.593-6.529-11.954-14.697-12.195z"/><path d="M16 1.938c-1.08 1.143-5.056 5.831-4.446 11.458l.508-.254c1.15-.574 2.505-.909 3.938-.909s2.788.336 3.99.933l-.052-.024.508.254C21.056 7.769 17.08 3.094 16 1.938z"/></symbol><symbol id="wind" viewBox="0 0 32 32"><path d="M24.989 6.769a3.848 3.848 0 0 1 6.636 2.653v.019-.001a3.87 3.87 0 0 1-3.858 3.858H.375zM13.801 25.23a3.848 3.848 0 0 0 6.636-2.653v-.019.001a3.87 3.87 0 0 0-3.858-3.858H.375z"/></symbol><symbol id="sleet" viewBox="0 0 32 32"><path d="M24.318 23.745a4.016 4.016 0 1 0 0-8.032l-.179.007a6.024 6.024 0 0 0-10.957-4.629l-.015.025a4.016 4.016 0 0 0-6.006 4.126l-.003-.024a4.31 4.31 0 0 0-3.483 4.224 4.304 4.304 0 0 0 4.285 4.303h.001z"/><path d="M11.984 28.908a.574.574 0 0 1-.574-.574v-.86a.574.574 0 0 1 1.148 0v.86a.574.574 0 0 1-.574.574zM16 25.322a.574.574 0 0 1-.574-.574v-.86a.574.574 0 0 1 1.148 0v.86a.574.574 0 0 1-.574.574zm4.016 6.454a.574.574 0 0 1-.574-.574v-.86a.574.574 0 0 1 1.148 0v.86a.574.574 0 0 1-.574.574zM13.39 24.067l-.416-.237a.974.974 0 0 0-.001-.466l.001.007.416-.237a.287.287 0 0 0 .099-.396l.001.001a.286.286 0 0 0-.396-.106l-.415.236a1.008 1.008 0 0 0-.402-.228l-.007-.002v-.473a.288.288 0 0 0-.574 0v.473a1.028 1.028 0 0 0-.416.23l-.409-.237a.289.289 0 0 0-.401.106l-.001.001a.287.287 0 0 0 .106.393l.417.237a.974.974 0 0 0 .001.466l-.001-.007-.416.237a.286.286 0 0 0-.106.396l-.001-.001a.288.288 0 0 0 .403.107l-.001.001.409-.237c.112.104.249.183.402.228l.007.002v.473c0 .158.129.287.287.287s.294-.129.294-.287v-.473c.151-.043.287-.122.409-.23l.416.237a.332.332 0 0 0 .143.036h.002a.287.287 0 0 0 .248-.142l.001-.001a.285.285 0 0 0-.099-.393l-.001-.001zm-1.621-.093a.43.43 0 0 1 .215-.803H11.993a.43.43 0 0 1 .371.647l.001-.002a.437.437 0 0 1-.597.157l.002.001zm5.636 6.547-.416-.23a1.006 1.006 0 0 0-.002-.473l.001.007.416-.237a.287.287 0 0 0 .099-.396l.001.001a.287.287 0 0 0-.396-.099l-.415.236a.999.999 0 0 0-.402-.235l-.007-.002v-.473a.288.288 0 0 0-.574 0v.473a1.028 1.028 0 0 0-.416.23l-.409-.23a.289.289 0 0 0-.401.099l-.001.001a.287.287 0 0 0 .106.393l.417.237a.974.974 0 0 0 .001.466l-.001-.007-.416.237a.286.286 0 0 0-.106.396l-.001-.001a.288.288 0 0 0 .403.107l-.001.001.409-.237c.112.104.249.183.402.228l.007.002v.473c0 .158.129.287.287.287s.294-.129.294-.287v-.473c.151-.043.287-.122.409-.23l.416.237a.332.332 0 0 0 .143.036h.002a.287.287 0 0 0 .248-.142l.001-.001a.285.285 0 0 0-.099-.393l-.001-.001zm-1.62-.093a.43.43 0 0 1 .215-.803H16.009a.43.43 0 0 1 .371.647l.001-.002a.437.437 0 0 1-.597.157l.002.001zm5.636-3.492-.416-.23a1.006 1.006 0 0 0-.002-.473l.001.007.416-.237a.287.287 0 0 0 .099-.396l.001.001a.286.286 0 0 0-.396-.106l-.415.236a1.008 1.008 0 0 0-.402-.228l-.007-.002v-.473a.288.288 0 0 0-.574 0v.473a1.028 1.028 0 0 0-.416.23l-.409-.237a.289.289 0 0 0-.401.106l-.001.001a.287.287 0 0 0 .106.393l.417.237a.974.974 0 0 0 .001.466l-.001-.007-.416.237a.286.286 0 0 0-.106.396l-.001-.001a.288.288 0 0 0 .403.107l-.001.001.409-.237c.112.104.249.183.402.228l.007.002v.473c0 .158.129.287.287.287s.294-.129.294-.287v-.473c.151-.043.287-.122.409-.23l.416.237a.332.332 0 0 0 .143.036h.002a.287.287 0 0 0 .248-.142l.001-.001a.285.285 0 0 0-.099-.393l-.001-.001zm-1.62-.094a.43.43 0 0 1 .215-.803H20.025a.43.43 0 0 1 .371.647l.001-.002a.437.437 0 0 1-.597.157l.002.001z"/></symbol><symbol id="thunderstorm" viewBox="0 0 32 32"><path d="M24.626 24.031a4.164 4.164 0 1 0 0-8.328l-.186.007a6.246 6.246 0 0 0-11.362-4.799l-.015.026a4.164 4.164 0 0 0-6.227 4.278l-.003-.025a4.47 4.47 0 0 0-3.611 4.38 4.462 4.462 0 0 0 4.443 4.462h.001z"/><path fill="#666" d="m14.81 18.751-2.379 7.139h2.379l-1.19 5.949 5.949-8.328H16l2.379-4.759H14.81z"/></symbol><symbol id="hail" viewBox="0 0 32 32"><path d="M24.775 24.17a4.236 4.236 0 1 0 0-8.472l-.189.008a6.354 6.354 0 0 0-11.558-4.883l-.016.026a4.237 4.237 0 0 0-6.335 4.352l-.004-.025c-2.108.42-3.674 2.255-3.674 4.456a4.539 4.539 0 0 0 4.52 4.539h.001z"/><path d="M11.764 23.111a.908.908 0 1 0 0 1.816.908.908 0 1 0 0-1.816zM16 29.919a.908.908 0 1 0 0 1.816.908.908 0 1 0 0-1.816zm4.236-4.539a.908.908 0 1 0 0 1.816.908.908 0 1 0 0-1.816z"/></symbol><symbol id="hurricane" viewBox="0 0 32 32"><path stroke-linecap="round" stroke-miterlimit="10" stroke-width="1.125" d="M25.493 16c0 5.243-4.25 9.493-9.493 9.493S6.507 21.243 6.507 16 10.757 6.507 16 6.507s9.493 4.25 9.493 9.493zM9.959.995l-.41.831c-1.914 3.773-3.035 8.226-3.035 12.94 0 .852.037 1.696.108 2.529l-.008-.108m15.427 13.808.421-.831a29.008 29.008 0 0 0 2.945-15.372"/></symbol><symbol id="clearday" viewBox="0 0 32 32"><path d="M22.883 16a6.883 6.883 0 1 1-13.766 0 6.883 6.883 0 0 1 13.766 0zM16 5.323V1.25zm0 25.427v-4.073zm7.555-22.305 2.868-2.868zM5.577 26.423l2.876-2.876zM8.453 8.437 5.585 5.569zM26.44 26.423l-2.876-2.876zM5.323 16H1.25zm25.427 0h-4.073z"/></symbol><symbol id="clearnight" viewBox="0 0 32 32"><path d="m29.552 19.882-.127.001c-8.469 0-15.341-6.836-15.4-15.291v-.006c0-1.329.196-2.611.52-3.836C6.79 1.571.794 8.055.751 15.949v.004c0 8.445 6.932 15.296 15.504 15.296 7.221 0 13.263-4.875 14.996-11.461-.555.058-1.132.092-1.71.092z"/></symbol><symbol id="cloudy" viewBox="0 0 32 32"><path d="M26.526 25.8a5.082 5.082 0 1 0 0-10.164l-.227.009a7.622 7.622 0 0 0-13.865-5.857l-.019.032a5.082 5.082 0 0 0-7.601 5.221l-.004-.03c-2.528.504-4.407 2.705-4.407 5.345 0 3 2.426 5.433 5.422 5.445h.001z"/></symbol></defs></svg>