<svg xmlns="http://www.w3.org/2000/svg" xmlns:xlink="http://www.w3.org/1999/xlink" viewBox="0 0 512 512"><defs><linearGradient id="a" x1="99.5" x2="232.6" y1="30.7" y2="261.4" gradientUnits="userSpaceOnUse"><stop offset="0" stop-color="#f3f7fe"/><stop offset=".5" stop-color="#f3f7fe"/><stop offset="1" stop-color="#deeafb"/></linearGradient><linearGradient id="b" x1="8.7" x2="80.9" y1="17.1" y2="142.1" gradientUnits="userSpaceOnUse"><stop offset="0" stop-color="#f7b23b"/><stop offset=".5" stop-color="#f7b23b"/><stop offset="1" stop-color="#f59e0b"/></linearGradient><linearGradient id="c" x1="11.4" x2="32.8" y1="5.9" y2="43.1" gradientUnits="userSpaceOnUse"><stop offset="0" stop-color="#86c3db"/><stop offset=".5" stop-color="#86c3db"/><stop offset="1" stop-color="#5eafcf"/></linearGradient><linearGradient xlink:href="#c" id="d" x1="67.4" x2="88.8" y1="5.9" y2="43.1"/><linearGradient xlink:href="#c" id="e" x1="123.4" x2="144.8" y1="5.9" y2="43.1"/><linearGradient id="f" x1="78" x2="118" y1="63.4" y2="132.7" gradientUnits="userSpaceOnUse"><stop offset="0" stop-color="#fbbf24"/><stop offset=".5" stop-color="#fbbf24"/><stop offset="1" stop-color="#f59e0b"/></linearGradient><symbol id="h" viewBox="0 0 196 196"><circle cx="98" cy="98" r="40" fill="url('#f')" stroke="#f8af18" stroke-miterlimit="10" stroke-width="4"/><path fill="none" stroke="#fbbf24" stroke-linecap="round" stroke-miterlimit="10" stroke-width="12" d="M98 31.4V6m0 184v-25.4M145.1 51l18-17.9M33 163l18-17.9M51 51 33 33m130.1 130.1-18-18M6 98h25.4M190 98h-25.4"><animateTransform additive="sum" attributeName="transform" dur="6s" repeatCount="indefinite" type="rotate" values="0 98 98; 45 98 98"/></path></symbol><symbol id="i" viewBox="0 0 350 222"><path fill="url('#a')" stroke="#e6effc" stroke-miterlimit="10" stroke-width="6" d="m291 107-2.5.1A83.9 83.9 0 0 0 135.6 43 56 56 0 0 0 51 91a56.6 56.6 0 0 0 .8 9A60 60 0 0 0 63 219l4-.2v.2h224a56 56 0 0 0 0-112Z"/></symbol><symbol id="g" viewBox="0 0 363 258"><use xlink:href="#h" width="196" height="196"/><use xlink:href="#i" width="350" height="222" transform="translate(13 36)"/></symbol><symbol id="j" overflow="visible" viewBox="0 0 156.2 49"><g><animateTransform id="s1" additive="sum" attributeName="transform" begin="0s; s1.end+1s" dur="2s" type="translate" values="0 -36; 0 92;"/></g><g><animateTransform id="s2" additive="sum" attributeName="transform" begin="-.83s; s2.end+1s" dur="2s" type="translate" values="0 -36; 0 92;"/></g><g><animateTransform id="s3" additive="sum" attributeName="transform" begin=".83s; s3.end+1s" dur="2s" type="translate" values="0 -36; 0 92;"/></g></symbol><symbol id="k" viewBox="0 0 102.7 186.8"><path fill="url('#b')" stroke="#f6a823" stroke-miterlimit="10" stroke-width="4" d="m34.8 2-32 96h32l-16 80 80-112h-48l32-64h-48z"><animate id="x1" attributeName="opacity" begin="0s; x1.end+.67s" dur="1.33s" keyTimes="0; .38; .5; .63; .75; .86; .94; 1" values="1; 1; 0; 1; 0; 1; 0; 1"/></path></symbol></defs><use xlink:href="#g" width="363" height="258" transform="translate(68 109)"/><use xlink:href="#j" width="156.2" height="49" transform="translate(177.9 337.5)"/><use xlink:href="#k" width="102.7" height="186.7" transform="translate(205.23 291)"/></svg>