<svg aria-hidden="true" style="position: absolute; width: 0; height: 0; overflow: hidden;" version="1.1" xmlns="http://www.w3.org/2000/svg" xmlns:xlink="http://www.w3.org/1999/xlink"><symbol id="a" viewBox="0 0 32 32">
<path stroke-linejoin="round" stroke-linecap="round" stroke-miterlimit="4" stroke-width="0.9375" d="M28.486 20.219l-3.692-2.12c0.334-1.399 0.323-2.831 0-4.198l3.692-2.12c0.778-0.455 1.293-1.287 1.293-2.239 0-1.428-1.157-2.585-2.585-2.585-0.476 0-0.921 0.128-1.304 0.352l0.012-0.007-3.692 2.131c-0.995-0.943-2.212-1.662-3.564-2.072l-0.064-0.017v-4.263c0-1.427-1.157-2.583-2.583-2.583s-2.583 1.157-2.583 2.583v0 4.263c-1.415 0.428-2.631 1.147-3.632 2.092l0.004-0.004-3.692-2.131c-0.371-0.217-0.816-0.346-1.292-0.346-1.428 0-2.585 1.157-2.585 2.585 0 0.952 0.515 1.784 1.281 2.232l0.012 0.007 3.692 2.12c-0.323 1.399-0.323 2.831 0 4.198l-3.692 2.11c-0.778 0.455-1.293 1.287-1.293 2.239 0 1.428 1.157 2.585 2.585 2.585 0.476 0 0.921-0.128 1.304-0.352l-0.012 0.007 3.692-2.131c0.995 0.943 2.212 1.662 3.564 2.072l0.064 0.017v4.273c0 1.427 1.157 2.583 2.583 2.583s2.583-1.157 2.583-2.583v0-4.273c1.414-0.425 2.63-1.141 3.632-2.082l-0.005 0.004 3.692 2.131c0.372 0.223 0.821 0.354 1.3 0.354 0.952 0 1.782-0.519 2.224-1.289l0.007-0.012c0.218-0.371 0.346-0.816 0.346-1.292 0-0.952-0.515-1.784-1.281-2.232l-0.012-0.007zM14.063 19.358c-1.168-0.683-1.94-1.93-1.94-3.358 0-2.141 1.736-3.877 3.877-3.877 0.713 0 1.382 0.193 1.956 0.529l-0.018-0.010c1.168 0.683 1.94 1.93 1.94 3.358 0 2.141-1.736 3.877-3.877 3.877-0.713 0-1.382-0.193-1.956-0.529l0.018 0.010z"></path>
</symbol></svg>